<svg xmlns="http://www.w3.org/2000/svg" xmlns:v="https://svgstorm.com"
viewBox = "0 0 75 64"
width="75"
height="64">
<g fill="None" fill-opacity="0.0" stroke="#000000" stroke-opacity="1.00" stroke-width="0.3"><path d="
M 0.00 64.00 
L 75.00 64.00
L 75.00 0.00
L 0.00 0.00
L 0.00 64.00
M 43.00 7.00 
C 61.99 9.71 71.65 34.80 59.75 49.75 C 47.84 64.69 22.89 63.42 14.23 44.77 C 5.57 26.13 22.26 4.04 43.00 7.00 Z"/>
</g>
<g fill="None" fill-opacity="0.0" stroke="#F5F5F5" stroke-opacity="1.00" stroke-width="0.3"><path d="
M 43.00 7.00 
C 22.26 4.04 5.57 26.13 14.23 44.77 C 22.89 63.42 47.84 64.69 59.75 49.75 C 71.65 34.80 61.99 9.71 43.00 7.00
M 28.00 43.00 
C 24.74 41.27 26.74 32.91 27.00 30.00
C 29.19 33.09 27.43 38.16 28.00 42.00
C 32.70 39.86 28.62 33.44 30.00 29.00 C 31.38 24.56 26.65 19.78 28.00 15.00
C 44.23 13.00 54.22 14.47 54.00 32.00 C 53.78 49.53 44.39 50.85 28.00 49.00
C 28.00 47.00 28.00 45.00 28.00 43.00
M 27.00 26.00 
C 27.39 26.92 27.41 27.43 27.00 29.00
C 25.61 28.74 26.22 26.95 26.00 26.00
C 25.68 23.51 26.54 24.64 27.00 26.00
M 27.00 49.00 
C 27.46 54.95 21.16 48.52 27.00 49.00 Z"/>
</g>
<g fill="None" fill-opacity="0.0" stroke="#181818" stroke-opacity="1.00" stroke-width="0.3"><path d="
M 28.00 42.00 
C 28.00 42.50 28.00 43.00 28.00 43.00
C 28.00 45.00 28.00 47.00 28.00 49.00
C 44.39 50.85 53.78 49.53 54.00 32.00 C 54.22 14.47 44.23 13.00 28.00 15.00
C 26.65 19.78 31.38 24.56 30.00 29.00 C 28.62 33.44 32.70 39.86 28.00 42.00
M 47.00 27.00 
C 46.98 27.50 47.00 28.00 47.00 28.00
C 48.38 29.46 47.32 28.76 47.00 30.00
C 46.88 30.47 46.98 31.50 47.00 32.00
C 47.12 35.22 46.86 39.23 44.00 41.00
C 42.40 41.99 38.45 43.07 37.00 41.00
C 33.75 36.35 39.83 26.54 37.00 22.00
C 40.33 22.14 42.44 23.06 46.00 23.00
C 45.63 24.54 47.43 25.40 47.00 27.00 Z"/>
</g>
<g fill="None" fill-opacity="0.0" stroke="#E7E7E7" stroke-opacity="1.00" stroke-width="0.3"><path d="
M 37.00 41.00 
C 39.11 40.41 41.97 41.78 44.00 41.00
C 46.86 39.23 47.12 35.22 47.00 32.00
C 45.79 32.92 45.27 32.63 44.00 32.00
C 44.55 30.99 45.98 30.56 47.00 30.00
C 47.15 29.95 47.00 29.00 47.00 29.00
C 46.00 28.58 45.23 27.72 44.00 28.00
C 44.26 26.61 46.05 27.22 47.00 27.00
C 47.43 25.40 45.63 24.54 46.00 23.00
C 42.44 23.06 40.33 22.14 37.00 22.00
C 39.83 26.54 33.75 36.35 37.00 41.00
M 45.00 29.00 
C 45.74 29.74 44.18 28.18 45.00 29.00
M 45.00 34.00 
C 45.97 38.12 42.36 35.76 45.00 34.00 Z"/>
</g>
<g fill="None" fill-opacity="0.0" stroke="#5C5C5C" stroke-opacity="1.00" stroke-width="0.3"><path d="
M 26.00 26.00 
C 26.00 25.97 27.00 26.00 27.00 26.00
C 26.54 24.64 25.68 23.51 26.00 26.00 Z"/>
</g>
<g fill="None" fill-opacity="0.0" stroke="#B7B7B7" stroke-opacity="1.00" stroke-width="0.3"><path d="
M 27.00 26.00 
C 27.00 26.00 26.00 25.97 26.00 26.00
C 26.22 26.95 25.61 28.74 27.00 29.00
C 27.41 27.43 27.39 26.92 27.00 26.00 Z"/>
</g>
<g fill="None" fill-opacity="0.0" stroke="#A8A8A8" stroke-opacity="1.00" stroke-width="0.3"><path d="
M 47.00 29.00 
C 47.00 28.50 47.00 28.00 47.00 28.00
C 47.00 28.00 46.98 27.50 47.00 27.00
C 46.05 27.22 44.26 26.61 44.00 28.00
C 45.23 27.72 46.00 28.58 47.00 29.00 Z"/>
</g>
<g fill="None" fill-opacity="0.0" stroke="#505050" stroke-opacity="1.00" stroke-width="0.3"><path d="
M 47.00 29.00 
C 47.00 29.00 47.15 29.95 47.00 30.00
C 47.32 28.76 48.38 29.46 47.00 28.00
C 47.00 28.00 47.00 28.50 47.00 29.00 Z"/>
</g>
<g fill="None" fill-opacity="0.0" stroke="#636363" stroke-opacity="1.00" stroke-width="0.3"><path d="
M 45.00 29.00 
C 44.18 28.18 45.74 29.74 45.00 29.00 Z"/>
</g>
<g fill="None" fill-opacity="0.0" stroke="#9B9B9B" stroke-opacity="1.00" stroke-width="0.3"><path d="
M 28.00 43.00 
C 28.00 43.00 28.00 42.50 28.00 42.00
C 27.43 38.16 29.19 33.09 27.00 30.00
C 26.74 32.91 24.74 41.27 28.00 43.00 Z"/>
</g>
<g fill="None" fill-opacity="0.0" stroke="#A1A1A1" stroke-opacity="1.00" stroke-width="0.3"><path d="
M 47.00 32.00 
C 46.98 31.50 46.88 30.47 47.00 30.00
C 45.98 30.56 44.55 30.99 44.00 32.00
C 45.27 32.63 45.79 32.92 47.00 32.00 Z"/>
</g>
<g fill="None" fill-opacity="0.0" stroke="#A5A5A5" stroke-opacity="1.00" stroke-width="0.3"><path d="
M 45.00 34.00 
C 42.36 35.76 45.97 38.12 45.00 34.00 Z"/>
</g>
<g fill="None" fill-opacity="0.0" stroke="#757575" stroke-opacity="1.00" stroke-width="0.3"><path d="
M 44.00 41.00 
C 41.97 41.78 39.11 40.41 37.00 41.00
C 38.45 43.07 42.40 41.99 44.00 41.00 Z"/>
</g>
<g fill="None" fill-opacity="0.0" stroke="#747474" stroke-opacity="1.00" stroke-width="0.3"><path d="
M 27.00 49.00 
C 21.16 48.52 27.46 54.95 27.00 49.00 Z"/>
</g>
<g fill="#000000" fill-opacity="1.00" stroke="None">
<path d="
M 0.00 64.00 
L 75.00 64.00
L 75.00 0.00
L 0.00 0.00
L 0.00 64.00
M 43.00 7.00 
C 61.99 9.71 71.65 34.80 59.75 49.75 C 47.84 64.69 22.89 63.42 14.23 44.77 C 5.57 26.13 22.26 4.04 43.00 7.00 Z"/>
</g>
<g fill="#F5F5F5" fill-opacity="1.00" stroke="None">
<path d="
M 43.00 7.00 
C 22.26 4.04 5.57 26.13 14.23 44.77 C 22.89 63.42 47.84 64.69 59.75 49.75 C 71.65 34.80 61.99 9.71 43.00 7.00
M 28.00 43.00 
C 24.74 41.27 26.74 32.91 27.00 30.00
C 29.19 33.09 27.43 38.16 28.00 42.00
C 32.70 39.86 28.62 33.44 30.00 29.00 C 31.38 24.56 26.65 19.78 28.00 15.00
C 44.23 13.00 54.22 14.47 54.00 32.00 C 53.78 49.53 44.39 50.85 28.00 49.00
C 28.00 47.00 28.00 45.00 28.00 43.00
M 27.00 26.00 
C 27.39 26.92 27.41 27.43 27.00 29.00
C 25.61 28.74 26.22 26.95 26.00 26.00
C 25.68 23.51 26.54 24.64 27.00 26.00
M 27.00 49.00 
C 27.46 54.95 21.16 48.52 27.00 49.00 Z"/>
</g>
<g fill="#181818" fill-opacity="1.00" stroke="None">
<path d="
M 28.00 42.00 
C 28.00 42.50 28.00 43.00 28.00 43.00
C 28.00 45.00 28.00 47.00 28.00 49.00
C 44.39 50.85 53.78 49.53 54.00 32.00 C 54.22 14.47 44.23 13.00 28.00 15.00
C 26.65 19.78 31.38 24.56 30.00 29.00 C 28.62 33.44 32.70 39.86 28.00 42.00
M 47.00 27.00 
C 46.98 27.50 47.00 28.00 47.00 28.00
C 48.38 29.46 47.32 28.76 47.00 30.00
C 46.88 30.47 46.98 31.50 47.00 32.00
C 47.12 35.22 46.86 39.23 44.00 41.00
C 42.40 41.99 38.45 43.07 37.00 41.00
C 33.75 36.35 39.83 26.54 37.00 22.00
C 40.33 22.14 42.44 23.06 46.00 23.00
C 45.63 24.54 47.43 25.40 47.00 27.00 Z"/>
</g>
<g fill="#E7E7E7" fill-opacity="1.00" stroke="None">
<path d="
M 37.00 41.00 
C 39.11 40.41 41.97 41.78 44.00 41.00
C 46.86 39.23 47.12 35.22 47.00 32.00
C 45.79 32.92 45.27 32.63 44.00 32.00
C 44.55 30.99 45.98 30.56 47.00 30.00
C 47.15 29.95 47.00 29.00 47.00 29.00
C 46.00 28.58 45.23 27.72 44.00 28.00
C 44.26 26.61 46.05 27.22 47.00 27.00
C 47.43 25.40 45.63 24.54 46.00 23.00
C 42.44 23.06 40.33 22.14 37.00 22.00
C 39.83 26.54 33.75 36.35 37.00 41.00
M 45.00 29.00 
C 45.74 29.74 44.18 28.18 45.00 29.00
M 45.00 34.00 
C 45.97 38.12 42.36 35.76 45.00 34.00 Z"/>
</g>
<g fill="#5C5C5C" fill-opacity="1.00" stroke="None">
<path d="
M 26.00 26.00 
C 26.00 25.97 27.00 26.00 27.00 26.00
C 26.54 24.64 25.68 23.51 26.00 26.00 Z"/>
</g>
<g fill="#B7B7B7" fill-opacity="1.00" stroke="None">
<path d="
M 27.00 26.00 
C 27.00 26.00 26.00 25.97 26.00 26.00
C 26.22 26.95 25.61 28.74 27.00 29.00
C 27.41 27.43 27.39 26.92 27.00 26.00 Z"/>
</g>
<g fill="#A8A8A8" fill-opacity="1.00" stroke="None">
<path d="
M 47.00 29.00 
C 47.00 28.50 47.00 28.00 47.00 28.00
C 47.00 28.00 46.98 27.50 47.00 27.00
C 46.05 27.22 44.26 26.61 44.00 28.00
C 45.23 27.72 46.00 28.58 47.00 29.00 Z"/>
</g>
<g fill="#505050" fill-opacity="1.00" stroke="None">
<path d="
M 47.00 29.00 
C 47.00 29.00 47.15 29.95 47.00 30.00
C 47.32 28.76 48.38 29.46 47.00 28.00
C 47.00 28.00 47.00 28.50 47.00 29.00 Z"/>
</g>
<g fill="#636363" fill-opacity="1.00" stroke="None">
<path d="
M 45.00 29.00 
C 44.18 28.18 45.74 29.74 45.00 29.00 Z"/>
</g>
<g fill="#9B9B9B" fill-opacity="1.00" stroke="None">
<path d="
M 28.00 43.00 
C 28.00 43.00 28.00 42.50 28.00 42.00
C 27.43 38.16 29.19 33.09 27.00 30.00
C 26.74 32.91 24.74 41.27 28.00 43.00 Z"/>
</g>
<g fill="#A1A1A1" fill-opacity="1.00" stroke="None">
<path d="
M 47.00 32.00 
C 46.98 31.50 46.88 30.47 47.00 30.00
C 45.98 30.56 44.55 30.99 44.00 32.00
C 45.27 32.63 45.79 32.92 47.00 32.00 Z"/>
</g>
<g fill="#A5A5A5" fill-opacity="1.00" stroke="None">
<path d="
M 45.00 34.00 
C 42.36 35.76 45.97 38.12 45.00 34.00 Z"/>
</g>
<g fill="#757575" fill-opacity="1.00" stroke="None">
<path d="
M 44.00 41.00 
C 41.97 41.78 39.11 40.41 37.00 41.00
C 38.45 43.07 42.40 41.99 44.00 41.00 Z"/>
</g>
<g fill="#747474" fill-opacity="1.00" stroke="None">
<path d="
M 27.00 49.00 
C 21.16 48.52 27.46 54.95 27.00 49.00 Z"/>
</g>
</svg>