<svg version="1.1" id="Layer_1" xmlns="http://www.w3.org/2000/svg" xmlns:xlink="http://www.w3.org/1999/xlink" x="0px" y="0px"
	 width="100%" viewBox="0 0 499 322" enable-background="new 0 0 499 322" xml:space="preserve">
<path fill="#000000" opacity="1.000000" stroke="none" 
	d="
M327.000000,323.000000 
	C218.033035,323.000000 109.566071,323.000000 1.049551,323.000000 
	C1.049551,215.732407 1.049551,108.464767 1.049551,1.098569 
	C167.216934,1.098569 333.433929,1.098569 499.825470,1.098569 
	C499.825470,108.333099 499.825470,215.666534 499.825470,323.000000 
	C442.464844,323.000000 384.982422,323.000000 327.000000,323.000000 
M276.418335,94.992523 
	C265.882294,87.963509 253.748932,85.756516 242.025467,88.344841 
	C214.014618,94.529129 199.342331,118.985382 206.446213,146.331833 
	C213.602997,173.881882 243.862091,187.397537 269.370819,175.841461 
	C302.749451,160.720108 306.659363,117.379829 276.418335,94.992523 
M184.628082,257.625092 
	C193.397537,257.843903 202.167755,258.230621 210.936005,258.189606 
	C213.967178,258.175446 219.991135,250.643707 219.997696,247.551041 
	C220.025650,234.388641 220.041290,221.226044 219.990372,208.063782 
	C219.975006,204.089432 213.731476,197.134613 209.843277,197.050552 
	C201.553635,196.871338 193.257416,196.995743 184.464874,196.995743 
	C184.464874,217.181732 184.464874,236.969238 184.628082,257.625092 
M284.703583,196.996292 
	C283.277649,197.101929 281.851715,197.207565 280.285095,197.323624 
	C280.285095,217.788971 280.285095,237.819885 280.285095,258.294220 
	C289.180481,258.294220 297.807709,258.418823 306.428314,258.234497 
	C310.003815,258.158051 315.992218,250.894684 315.998566,247.097336 
	C316.018585,235.125137 315.802155,223.147659 316.108643,211.183289 
	C316.228119,206.519073 314.965973,203.211105 311.524109,199.946350 
	C308.748444,197.313568 306.010193,196.896637 302.626862,196.974686 
	C296.976440,197.105011 291.320618,197.001968 284.703583,196.996292 
M246.377121,247.443100 
	C246.377121,242.786102 246.377121,238.129105 246.377121,232.949493 
	C251.117325,232.949493 255.681595,232.949493 260.248657,232.949493 
	C260.248657,229.010696 260.248657,225.604980 260.248657,221.876099 
	C255.472321,221.876099 251.010422,221.876099 246.687775,221.876099 
	C246.687775,217.283783 246.687775,213.025864 246.687775,208.159180 
	C253.208298,208.159180 259.420502,208.159180 265.565948,208.159180 
	C265.565948,204.116272 265.565948,200.700348 265.565948,197.379028 
	C255.228607,197.379028 245.187805,197.379028 235.364029,197.379028 
	C235.364029,217.810318 235.364029,237.856323 235.364029,258.048279 
	C239.138428,258.048279 242.563080,258.048279 246.376953,258.048279 
	C246.376953,254.671051 246.376953,251.543884 246.377121,247.443100 
z"/>
<path fill="#FDFDFD" opacity="1.000000" stroke="none" 
	d="
M276.699310,95.232079 
	C306.659363,117.379829 302.749451,160.720108 269.370819,175.841461 
	C243.862091,187.397537 213.602997,173.881882 206.446213,146.331833 
	C199.342331,118.985382 214.014618,94.529129 242.025467,88.344841 
	C253.748932,85.756516 265.882294,87.963509 276.699310,95.232079 
M230.275269,144.125793 
	C229.878540,144.177505 229.481796,144.229218 229.085083,144.280945 
	C229.273483,144.635818 229.461899,144.990707 229.957230,145.844299 
	C230.254471,146.027817 230.551712,146.211349 230.986252,147.242294 
	C231.343887,147.679916 231.701508,148.117554 231.477036,149.261108 
	C230.973282,149.023926 230.469528,148.786728 229.965759,148.549545 
	C230.164124,148.316940 230.444443,147.854111 230.547012,147.890610 
	C231.055969,148.071793 231.518051,148.384659 231.598175,149.704071 
	C231.665756,150.073212 231.733337,150.442352 232.049591,151.314514 
	C232.084167,152.302078 232.284821,153.317337 232.125443,154.272537 
	C231.296982,159.238312 233.617432,160.397217 238.202957,160.192612 
	C245.114380,159.884232 252.054108,160.210663 259.054291,160.920364 
	C259.725586,161.508163 260.396851,162.095963 261.068146,162.683762 
	C261.383179,161.849777 261.698212,161.015793 262.773651,160.013794 
	C269.875671,158.899780 275.347626,154.992828 275.929504,147.891052 
	C276.867279,136.444855 277.276489,124.796684 276.189606,113.397774 
	C275.436890,105.503220 269.264862,101.208443 262.185852,101.043633 
	C253.374451,100.838501 244.553375,100.924011 235.739929,101.079689 
	C234.553329,101.100655 232.315735,102.412758 232.380356,102.870804 
	C232.901688,106.565460 229.721451,111.406258 235.393433,113.709351 
	C235.769730,113.862152 235.669388,115.188820 235.187866,115.961128 
	C234.786514,115.981537 234.385162,116.001945 233.378937,116.057907 
	C232.884445,116.368088 232.389969,116.678268 231.526535,116.979179 
	C231.526535,116.979179 231.157822,116.963936 230.658936,116.655739 
	C230.464249,116.638138 230.269577,116.620529 230.079971,116.448235 
	C230.079971,116.448235 229.996353,116.111946 229.456009,116.829239 
	C227.886459,118.089790 227.628677,119.084465 229.939148,120.029175 
	C229.956284,120.517113 229.973419,121.005043 229.460922,121.830414 
	C229.623917,122.198944 229.786896,122.567482 229.953827,122.997139 
	C229.953827,122.997139 230.006256,123.028786 229.820435,123.654884 
	C229.993683,124.545876 230.144623,125.441978 230.346954,126.326309 
	C230.521591,127.089523 230.754715,127.839348 230.174316,129.311981 
	C230.163284,129.666824 230.152252,130.021652 230.091324,130.469803 
	C230.091324,130.469803 230.020676,130.672836 229.484543,130.964844 
	C229.189621,131.535172 228.894699,132.105484 228.599777,132.675797 
	C229.429337,132.819946 230.258881,132.964096 231.510422,133.303604 
	C231.645844,133.735214 231.781281,134.166824 231.362549,134.823837 
	C230.329941,135.543335 229.297333,136.262833 228.124252,137.080215 
	C228.744659,137.649719 229.323593,138.181122 229.393600,139.141006 
	C229.932999,139.445663 230.472397,139.750320 231.010483,139.989548 
	C231.010483,139.989548 230.945038,139.989639 230.851608,140.756561 
	C231.220932,140.968597 231.590256,141.180649 231.890640,141.764313 
	C231.873825,142.017227 231.888947,142.268219 231.154800,142.889328 
	C231.098572,143.403061 231.042328,143.916794 230.928009,144.457550 
	C230.928009,144.457550 230.930481,144.521576 230.603775,144.539246 
	C230.603775,144.539246 230.406372,144.800171 230.275269,144.125793 
M230.480850,159.972595 
	C230.268982,159.927841 230.057114,159.883072 229.615555,159.914841 
	C229.615555,159.914841 229.373016,159.933670 228.709976,159.714645 
	C227.299927,160.265762 224.562790,160.039764 226.738419,163.541351 
	C227.069641,164.333527 227.400864,165.125702 227.838791,166.173111 
	C230.393692,164.864059 231.836624,163.308640 230.134430,160.291107 
	C230.134430,160.291107 230.181732,160.173492 230.480850,159.972595 
M248.666077,163.905197 
	C248.589005,164.261246 248.511932,164.617294 248.434845,164.973328 
	C248.705505,165.004349 249.198639,165.101837 249.212296,165.056091 
	C249.346039,164.608414 249.399811,164.136841 248.666077,163.905197 
M228.000168,111.496185 
	C228.198273,111.627899 228.396378,111.759605 228.594467,111.891319 
	C228.561279,111.594269 228.528091,111.297211 228.000168,111.496185 
M226.525223,112.998009 
	C226.606216,112.762741 226.687210,112.527473 226.768219,112.292198 
	C226.532715,112.368210 226.297211,112.444221 226.525223,112.998009 
M243.240967,164.608261 
	C243.328384,164.520187 243.479095,164.436279 243.485260,164.342865 
	C243.491257,164.251694 243.349594,164.150772 243.272766,164.054138 
	C243.183121,164.141129 243.093475,164.228134 243.240967,164.608261 
M256.185028,163.481537 
	C256.394348,163.495499 256.603638,163.509476 256.812958,163.523438 
	C256.715332,163.411453 256.617737,163.299469 256.185028,163.481537 
M228.481445,153.620682 
	C228.481445,153.620682 228.579300,153.451797 228.579300,153.451797 
	C228.579300,153.451797 228.385162,153.474884 228.481445,153.620682 
z"/>
<path fill="#F8F8F8" opacity="1.000000" stroke="none" 
	d="
M184.546478,257.190918 
	C184.464874,236.969238 184.464874,217.181732 184.464874,196.995743 
	C193.257416,196.995743 201.553635,196.871338 209.843277,197.050552 
	C213.731476,197.134613 219.975006,204.089432 219.990372,208.063782 
	C220.041290,221.226044 220.025650,234.388641 219.997696,247.551041 
	C219.991135,250.643707 213.967178,258.175446 210.936005,258.189606 
	C202.167755,258.230621 193.397537,257.843903 184.546478,257.190918 
M208.991745,242.232101 
	C208.991516,232.430954 209.106979,222.626999 208.867798,212.831680 
	C208.831421,211.342026 207.335129,208.823929 206.194855,208.626617 
	C202.893372,208.055359 199.429214,208.424454 196.121811,208.424454 
	C196.121811,221.635773 196.121811,234.184830 196.121811,247.007782 
	C199.356308,247.007782 202.323624,246.904984 205.280396,247.037338 
	C208.114120,247.164200 209.263290,245.914413 208.991745,242.232101 
z"/>
<path fill="#FCFCFC" opacity="1.000000" stroke="none" 
	d="
M285.185333,196.996735 
	C291.320618,197.001968 296.976440,197.105011 302.626862,196.974686 
	C306.010193,196.896637 308.748444,197.313568 311.524109,199.946350 
	C314.965973,203.211105 316.228119,206.519073 316.108643,211.183289 
	C315.802155,223.147659 316.018585,235.125137 315.998566,247.097336 
	C315.992218,250.894684 310.003815,258.158051 306.428314,258.234497 
	C297.807709,258.418823 289.180481,258.294220 280.285095,258.294220 
	C280.285095,237.819885 280.285095,217.788971 280.285095,197.323624 
	C281.851715,197.207565 283.277649,197.101929 285.185333,196.996735 
M305.005524,230.495193 
	C305.006012,226.836884 305.073730,223.177109 304.994720,219.520508 
	C304.725006,207.040878 307.620972,208.153397 293.112061,208.353012 
	C292.829712,208.356888 292.551392,208.651016 292.229004,208.833618 
	C292.229004,221.508759 292.229004,234.197708 292.229004,247.027405 
	C295.386414,247.027405 298.211182,246.891846 301.017120,247.063889 
	C304.090027,247.252289 305.179596,245.962891 305.046570,242.964523 
	C304.877228,239.147446 305.005890,235.317154 305.005524,230.495193 
z"/>
<path fill="#FBFBFB" opacity="1.000000" stroke="none" 
	d="
M246.377045,247.929916 
	C246.376953,251.543884 246.376953,254.671051 246.376953,258.048279 
	C242.563080,258.048279 239.138428,258.048279 235.364029,258.048279 
	C235.364029,237.856323 235.364029,217.810318 235.364029,197.379028 
	C245.187805,197.379028 255.228607,197.379028 265.565948,197.379028 
	C265.565948,200.700348 265.565948,204.116272 265.565948,208.159180 
	C259.420502,208.159180 253.208298,208.159180 246.687775,208.159180 
	C246.687775,213.025864 246.687775,217.283783 246.687775,221.876099 
	C251.010422,221.876099 255.472321,221.876099 260.248657,221.876099 
	C260.248657,225.604980 260.248657,229.010696 260.248657,232.949493 
	C255.681595,232.949493 251.117325,232.949493 246.377121,232.949493 
	C246.377121,238.129105 246.377121,242.786102 246.377045,247.929916 
z"/>
<path fill="#151515" opacity="1.000000" stroke="none" 
	d="
M231.996658,148.651123 
	C231.518051,148.384659 231.055969,148.071793 230.547012,147.890610 
	C230.444443,147.854111 230.164124,148.316940 229.965759,148.549530 
	C230.469528,148.786728 230.973282,149.023926 232.112854,148.769073 
	C233.830292,147.261124 235.832031,146.261566 235.850403,145.226761 
	C236.023605,135.477768 235.858353,125.722763 235.790741,115.969490 
	C235.669388,115.188820 235.769730,113.862152 235.393433,113.709351 
	C229.721451,111.406258 232.901688,106.565460 232.380356,102.870804 
	C232.315735,102.412758 234.553329,101.100655 235.739929,101.079689 
	C244.553375,100.924011 253.374451,100.838501 262.185852,101.043633 
	C269.264862,101.208443 275.436890,105.503220 276.189606,113.397774 
	C277.276489,124.796684 276.867279,136.444855 275.929504,147.891052 
	C275.347626,154.992828 269.875671,158.899780 262.015808,160.033203 
	C260.499237,160.124161 259.740509,160.195709 258.981812,160.267273 
	C252.054108,160.210663 245.114380,159.884232 238.202957,160.192612 
	C233.617432,160.397217 231.296982,159.238312 232.125443,154.272537 
	C232.284821,153.317337 232.084167,152.302078 232.096802,150.821991 
	C232.094894,149.770020 232.045776,149.210571 231.996658,148.651123 
M265.894409,124.330505 
	C265.815704,123.859871 265.737030,123.389236 265.781647,122.313133 
	C265.609009,121.529716 265.436340,120.746292 265.385010,119.284645 
	C265.231873,118.854477 265.078705,118.424316 264.964325,117.252937 
	C263.617828,114.040268 260.976654,113.732399 257.215607,113.995613 
	C256.140045,114.047577 255.064484,114.099548 253.146027,114.019234 
	C251.424133,114.019234 249.702240,114.019234 247.142242,114.019234 
	C248.527115,115.881584 249.272141,116.883461 250.003815,117.867401 
	C247.432877,120.359871 246.620834,134.190460 248.275085,147.226151 
	C252.426498,146.966309 256.633759,146.702988 261.112091,146.330139 
	C261.112091,146.330139 261.239838,146.474213 261.239838,146.474213 
	C261.239838,146.474213 260.828156,146.444214 260.689423,145.686829 
	C260.816742,145.463959 260.944061,145.241104 261.589722,145.034500 
	C261.735718,144.747726 261.881744,144.460938 262.690552,143.997498 
	C262.988739,143.670364 263.286926,143.343216 264.395172,143.180466 
	C264.836365,137.778412 265.277527,132.376358 265.857147,126.330948 
	C265.807343,125.897598 265.757538,125.464249 265.894409,124.330505 
z"/>
<path fill="#E1E1E1" opacity="1.000000" stroke="none" 
	d="
M235.489319,115.965309 
	C235.858353,125.722763 236.023605,135.477768 235.850403,145.226761 
	C235.832031,146.261566 233.830292,147.261124 232.403900,148.416107 
	C231.701508,148.117554 231.343887,147.679916 230.993149,146.352173 
	C230.976868,145.148544 230.953674,144.835068 230.930481,144.521576 
	C230.930481,144.521576 230.928009,144.457550 231.241455,144.197556 
	C231.681931,143.464142 231.808975,142.990707 231.936020,142.517288 
	C231.888947,142.268219 231.873825,142.017227 232.137543,141.348785 
	C231.904633,140.618729 231.424835,140.304184 230.945038,139.989639 
	C230.945038,139.989639 231.010483,139.989548 231.026016,139.763428 
	C231.041870,139.364471 231.042206,139.191620 231.019958,139.007965 
	C230.997391,138.997131 230.999756,139.047134 231.359879,138.965637 
	C231.826187,138.421295 231.932373,137.958450 232.062195,137.134430 
	C232.029449,136.048325 231.973083,135.323395 231.916718,134.598450 
	C231.781281,134.166824 231.645844,133.735214 231.405884,132.903259 
	C232.950027,131.047318 233.213058,129.712051 230.961975,128.595093 
	C230.754715,127.839348 230.521591,127.089523 230.346954,126.326309 
	C230.144623,125.441978 229.993683,124.545876 230.095535,123.075043 
	C230.688370,122.205559 231.006104,121.915909 231.358582,121.567375 
	C231.393311,121.508492 231.507462,121.260620 231.616684,120.929779 
	C232.117432,119.789207 232.508972,118.979492 233.150269,117.971008 
	C233.594620,117.188942 233.789215,116.605644 233.983810,116.022354 
	C234.385162,116.001945 234.786514,115.981537 235.489319,115.965309 
z"/>
<path fill="#F8F8F8" opacity="1.000000" stroke="none" 
	d="
M232.900482,118.169769 
	C232.508972,118.979492 232.117432,119.789207 231.566803,120.979187 
	C231.407684,121.359436 231.323837,121.626266 231.323837,121.626266 
	C231.006104,121.915909 230.688370,122.205559 230.188446,122.761993 
	C230.006256,123.028786 229.953827,122.997139 230.134628,122.610725 
	C230.207123,121.980530 230.098831,121.736755 229.990555,121.492981 
	C229.973419,121.005043 229.956284,120.517113 230.102417,119.451500 
	C230.563065,118.237198 230.860443,117.600571 231.157822,116.963936 
	C231.157822,116.963936 231.526535,116.979179 231.829224,117.221405 
	C232.388107,117.699005 232.644302,117.934387 232.900482,118.169769 
z"/>
<path fill="#CECECE" opacity="1.000000" stroke="none" 
	d="
M230.568146,128.953537 
	C233.213058,129.712051 232.950027,131.047318 231.194885,132.805588 
	C230.258881,132.964096 229.429337,132.819946 228.599792,132.675797 
	C228.894699,132.105484 229.189621,131.535172 229.879669,130.798157 
	C230.274811,130.631485 230.391739,130.407700 230.391739,130.407700 
	C230.391739,130.407700 230.141235,130.376495 230.141235,130.376495 
	C230.152252,130.021652 230.163284,129.666824 230.568146,128.953537 
z"/>
<path fill="#CECECE" opacity="1.000000" stroke="none" 
	d="
M231.639618,134.711151 
	C231.973083,135.323395 232.029449,136.048325 231.789124,137.344330 
	C231.328201,138.292633 231.163971,138.669891 230.999756,139.047134 
	C230.999756,139.047134 230.997391,138.997131 230.750580,138.873245 
	C230.303345,138.737091 230.102936,138.724823 229.902512,138.712540 
	C229.323593,138.181122 228.744659,137.649719 228.124252,137.080215 
	C229.297333,136.262833 230.329941,135.543335 231.639618,134.711151 
z"/>
<path fill="#717171" opacity="1.000000" stroke="none" 
	d="
M230.079391,160.399567 
	C231.836624,163.308640 230.393692,164.864059 227.838791,166.173111 
	C227.400864,165.125702 227.069641,164.333527 227.246231,163.009186 
	C228.198700,161.732193 228.643356,160.987350 229.307114,160.463165 
	C229.710617,160.589081 229.895004,160.494324 230.079391,160.399567 
z"/>
<path fill="#EFEFEF" opacity="1.000000" stroke="none" 
	d="
M259.018066,160.593811 
	C259.740509,160.195709 260.499237,160.124161 261.635559,160.117203 
	C261.698212,161.015793 261.383179,161.849777 261.068146,162.683762 
	C260.396851,162.095963 259.725586,161.508163 259.018066,160.593811 
z"/>
<path fill="#CECECE" opacity="1.000000" stroke="none" 
	d="
M229.088013,160.242493 
	C228.643356,160.987350 228.198700,161.732193 227.331451,162.633728 
	C224.562790,160.039764 227.299927,160.265762 228.978485,159.910217 
	C229.246994,160.105789 229.087997,160.242493 229.088013,160.242493 
z"/>
<path fill="#717171" opacity="1.000000" stroke="none" 
	d="
M230.908386,116.809837 
	C230.860443,117.600571 230.563065,118.237198 230.136063,119.209381 
	C227.628677,119.084465 227.886459,118.089790 229.432465,116.646866 
	C229.630920,116.510643 229.852921,116.556786 230.074905,116.602928 
	C230.269577,116.620529 230.464249,116.638138 230.908386,116.809837 
z"/>
<path fill="#CECECE" opacity="1.000000" stroke="none" 
	d="
M233.150269,117.971001 
	C232.644302,117.934387 232.388107,117.699005 232.013702,117.226036 
	C232.389969,116.678268 232.884445,116.368088 233.681366,116.040131 
	C233.789215,116.605644 233.594620,117.188942 233.150269,117.971001 
z"/>
<path fill="#717171" opacity="1.000000" stroke="none" 
	d="
M229.648056,138.926773 
	C230.102936,138.724823 230.303345,138.737091 230.773148,138.884064 
	C231.042206,139.191620 231.041870,139.364471 231.026672,139.796143 
	C230.472397,139.750320 229.932999,139.445663 229.648056,138.926773 
z"/>
<path fill="#717171" opacity="1.000000" stroke="none" 
	d="
M230.898315,140.373108 
	C231.424835,140.304184 231.904633,140.618729 232.171997,141.162979 
	C231.590256,141.180649 231.220932,140.968597 230.898315,140.373108 
z"/>
<path fill="#717171" opacity="1.000000" stroke="none" 
	d="
M249.071198,163.788635 
	C249.399811,164.136841 249.346039,164.608414 249.212296,165.056091 
	C249.198639,165.101837 248.705505,165.004349 248.434845,164.973328 
	C248.511932,164.617294 248.589005,164.261246 249.071198,163.788635 
z"/>
<path fill="#EFEFEF" opacity="1.000000" stroke="none" 
	d="
M229.845245,159.838303 
	C230.057114,159.883072 230.268982,159.927841 230.245529,159.990051 
	C230.010208,160.007523 229.845245,159.838303 229.845245,159.838303 
z"/>
<path fill="#717171" opacity="1.000000" stroke="none" 
	d="
M228.247528,111.248169 
	C228.528091,111.297211 228.561279,111.594269 228.594467,111.891312 
	C228.396378,111.759605 228.198273,111.627899 228.247528,111.248169 
z"/>
<path fill="#717171" opacity="1.000000" stroke="none" 
	d="
M226.293457,112.759125 
	C226.297211,112.444221 226.532715,112.368210 226.768219,112.292206 
	C226.687210,112.527473 226.606216,112.762741 226.293457,112.759125 
z"/>
<path fill="#CECECE" opacity="1.000000" stroke="none" 
	d="
M243.122406,164.461700 
	C243.093475,164.228134 243.183121,164.141129 243.272766,164.054138 
	C243.349594,164.150772 243.491257,164.251694 243.485260,164.342865 
	C243.479095,164.436279 243.328384,164.520187 243.122406,164.461700 
z"/>
<path fill="#E1E1E1" opacity="1.000000" stroke="none" 
	d="
M256.352570,163.334503 
	C256.617737,163.299469 256.715332,163.411453 256.812958,163.523438 
	C256.603638,163.509476 256.394348,163.495499 256.352570,163.334503 
z"/>
<path fill="#CECECE" opacity="1.000000" stroke="none" 
	d="
M229.725739,121.661697 
	C230.098831,121.736755 230.207123,121.980530 230.132660,122.580170 
	C229.786896,122.567482 229.623917,122.198944 229.725739,121.661697 
z"/>
<path fill="#EFEFEF" opacity="1.000000" stroke="none" 
	d="
M229.307098,160.463165 
	C229.087997,160.242493 229.246994,160.105789 229.309998,160.019730 
	C229.373016,159.933670 229.615555,159.914841 229.730408,159.876572 
	C229.845245,159.838303 230.010208,160.007523 230.095978,160.090515 
	C230.181732,160.173492 230.134430,160.291107 230.106903,160.345337 
	C229.895004,160.494324 229.710617,160.589081 229.307098,160.463165 
z"/>
<path fill="#CECECE" opacity="1.000000" stroke="none" 
	d="
M230.077438,116.525581 
	C229.852921,116.556786 229.630920,116.510643 229.702637,116.288223 
	C229.996353,116.111946 230.079971,116.448235 230.077438,116.525581 
z"/>
<path fill="#EFEFEF" opacity="1.000000" stroke="none" 
	d="
M228.433304,153.547791 
	C228.385162,153.474884 228.579300,153.451797 228.579300,153.451797 
	C228.579300,153.451797 228.481445,153.620682 228.433304,153.547791 
z"/>
<path fill="#E1E1E1" opacity="1.000000" stroke="none" 
	d="
M231.797424,149.177597 
	C232.045776,149.210571 232.094894,149.770020 231.972473,150.570480 
	C231.733337,150.442352 231.665756,150.073212 231.797424,149.177597 
z"/>
<path fill="#CECECE" opacity="1.000000" stroke="none" 
	d="
M230.767120,144.530411 
	C230.953674,144.835068 230.976868,145.148544 230.924500,145.928452 
	C230.551712,146.211349 230.254471,146.027817 229.982162,145.443863 
	C230.007095,145.043427 230.406372,144.800171 230.406372,144.800171 
	C230.406372,144.800171 230.603775,144.539246 230.767120,144.530411 
z"/>
<path fill="#CECECE" opacity="1.000000" stroke="none" 
	d="
M229.828705,145.194519 
	C229.461899,144.990707 229.273483,144.635818 229.085083,144.280945 
	C229.481796,144.229218 229.878540,144.177505 230.340820,144.462982 
	C230.406372,144.800171 230.007095,145.043427 229.828705,145.194519 
z"/>
<path fill="#CECECE" opacity="1.000000" stroke="none" 
	d="
M231.545410,142.703308 
	C231.808975,142.990707 231.681931,143.464142 231.270493,144.184052 
	C231.042328,143.916794 231.098572,143.403061 231.545410,142.703308 
z"/>
<path fill="#F8F8F8" opacity="1.000000" stroke="none" 
	d="
M230.116272,130.423157 
	C230.141235,130.376495 230.391739,130.407700 230.391739,130.407700 
	C230.391739,130.407700 230.274811,130.631485 230.147736,130.652161 
	C230.020676,130.672836 230.091324,130.469803 230.116272,130.423157 
z"/>
<path fill="#020202" opacity="1.000000" stroke="none" 
	d="
M208.991699,242.704453 
	C209.263290,245.914413 208.114120,247.164200 205.280396,247.037338 
	C202.323624,246.904984 199.356308,247.007782 196.121811,247.007782 
	C196.121811,234.184830 196.121811,221.635773 196.121811,208.424454 
	C199.429214,208.424454 202.893372,208.055359 206.194855,208.626617 
	C207.335129,208.823929 208.831421,211.342026 208.867798,212.831680 
	C209.106979,222.626999 208.991516,232.430954 208.991699,242.704453 
z"/>
<path fill="#020202" opacity="1.000000" stroke="none" 
	d="
M305.005798,230.993866 
	C305.005890,235.317154 304.877228,239.147446 305.046570,242.964523 
	C305.179596,245.962891 304.090027,247.252289 301.017120,247.063889 
	C298.211182,246.891846 295.386414,247.027405 292.229004,247.027405 
	C292.229004,234.197708 292.229004,221.508759 292.229004,208.833618 
	C292.551392,208.651016 292.829712,208.356888 293.112061,208.353012 
	C307.620972,208.153397 304.725006,207.040878 304.994720,219.520508 
	C305.073730,223.177109 305.006012,226.836884 305.005798,230.993866 
z"/>
<path fill="#FDFDFD" opacity="1.000000" stroke="none" 
	d="
M261.071381,145.018265 
	C260.944061,145.241104 260.816742,145.463959 260.804810,146.062622 
	C260.920227,146.438400 260.841034,146.439651 260.841034,146.439651 
	C256.633759,146.702988 252.426498,146.966309 248.275085,147.226151 
	C246.620834,134.190460 247.432877,120.359871 250.003815,117.867401 
	C249.272141,116.883461 248.527115,115.881584 247.142242,114.019234 
	C249.702240,114.019234 251.424133,114.019234 253.551682,114.350349 
	C253.627304,115.296280 253.297272,115.911087 252.671204,116.687225 
	C252.558029,117.214264 252.740906,117.579987 252.930710,117.998886 
	C252.937653,118.052063 253.044388,118.062614 253.051392,118.404198 
	C253.353592,118.974480 253.648804,119.203186 253.915970,119.655716 
	C254.109634,120.262032 254.331360,120.644516 254.952271,121.080116 
	C255.705658,120.777229 256.059875,120.421234 256.667664,120.097397 
	C257.429779,120.095306 257.938293,120.061066 258.945831,120.233749 
	C260.148315,120.304779 260.851746,120.168869 261.926025,120.032486 
	C263.285767,120.008972 264.274750,119.985924 265.263702,119.962875 
	C265.436340,120.746292 265.609009,121.529716 265.298157,122.600052 
	C263.754944,122.842278 262.695221,122.797585 261.373169,122.575867 
	C260.454651,122.414238 259.798401,122.429626 259.142181,122.445023 
	C259.408630,123.577339 259.675079,124.709663 259.824219,126.258507 
	C259.786285,126.952377 259.865692,127.229721 259.809631,127.719910 
	C259.641693,128.641251 259.609253,129.349747 259.810730,130.327728 
	C260.498291,130.437973 260.951904,130.278763 261.475006,130.171967 
	C261.544525,130.224396 261.691467,130.130844 262.035828,130.231735 
	C262.586609,130.211838 262.793091,130.091049 263.002625,129.976410 
	C263.005676,129.982559 263.022369,129.985718 262.967041,130.316605 
	C262.260712,132.247528 261.609741,133.847580 260.624023,135.579163 
	C260.527252,136.326065 260.765198,136.941452 260.730591,137.657135 
	C260.136047,139.210434 259.540894,140.672134 259.586731,142.113434 
	C259.618011,143.096466 260.544922,144.050995 261.071381,145.018265 
z"/>
<path fill="#CECECE" opacity="1.000000" stroke="none" 
	d="
M260.958771,135.447632 
	C261.609741,133.847580 262.260712,132.247528 262.969116,130.255722 
	C263.026520,129.863953 262.999542,129.970261 262.999542,129.970261 
	C262.793091,130.091049 262.586609,130.211838 262.093445,129.830994 
	C263.110748,128.544342 264.414703,127.759315 265.718689,126.974289 
	C265.277527,132.376358 264.836365,137.778412 263.669495,143.204529 
	C262.638489,143.543777 262.333099,143.858978 262.027740,144.174164 
	C261.881744,144.460938 261.735718,144.747726 261.330566,145.026382 
	C260.544922,144.050995 259.618011,143.096466 259.586731,142.113434 
	C259.540894,140.672134 260.136047,139.210434 260.734558,137.129501 
	C260.993591,136.150253 260.976196,135.798950 260.958771,135.447632 
z"/>
<path fill="#EFEFEF" opacity="1.000000" stroke="none" 
	d="
M265.324341,119.623764 
	C264.274750,119.985924 263.285767,120.008972 261.678558,119.737823 
	C260.189148,119.638023 259.317963,119.832420 258.446808,120.026817 
	C257.938293,120.061066 257.429779,120.095306 256.275482,120.033997 
	C255.270828,120.301285 254.911957,120.664139 254.553085,121.026993 
	C254.331360,120.644516 254.109634,120.262032 254.230957,119.494797 
	C254.064117,118.760910 253.554260,118.411766 253.044388,118.062614 
	C253.044388,118.062614 252.937653,118.052063 253.094650,117.648605 
	C253.156845,117.005386 253.062027,116.765640 252.967224,116.525894 
	C253.297272,115.911087 253.627304,115.296280 253.973129,114.416489 
	C255.064484,114.099548 256.140045,114.047577 257.641815,114.349655 
	C260.353882,115.800507 262.639709,116.897331 264.925568,117.994156 
	C265.078705,118.424316 265.231873,118.854477 265.324341,119.623764 
z"/>
<path fill="#FDFDFD" opacity="1.000000" stroke="none" 
	d="
M264.944946,117.623550 
	C262.639709,116.897331 260.353882,115.800507 258.039276,114.428627 
	C260.976654,113.732399 263.617828,114.040268 264.944946,117.623550 
z"/>
<path fill="#E1E1E1" opacity="1.000000" stroke="none" 
	d="
M265.787903,126.652618 
	C264.414703,127.759315 263.110748,128.544342 261.749115,129.730103 
	C261.691467,130.130844 261.544525,130.224396 261.018372,130.135712 
	C260.187073,130.050751 259.881958,130.054504 259.576782,130.058243 
	C259.609253,129.349747 259.641693,128.641251 260.085876,127.513969 
	C260.675873,126.720985 260.854156,126.346779 261.015747,125.986084 
	C260.999023,125.999596 260.965118,126.025970 261.297241,126.079391 
	C262.150543,125.750000 262.671753,125.367188 263.507263,124.994217 
	C264.450317,125.013016 265.079010,125.021957 265.707733,125.030899 
	C265.757538,125.464249 265.807343,125.897598 265.787903,126.652618 
z"/>
<path fill="#CECECE" opacity="1.000000" stroke="none" 
	d="
M265.801086,124.680695 
	C265.079010,125.021957 264.450317,125.013016 263.238159,124.774620 
	C262.423157,124.547073 262.191589,124.548981 261.896545,124.255554 
	C261.767212,123.557770 261.701355,123.155334 261.635498,122.752892 
	C262.695221,122.797585 263.754944,122.842278 265.236511,122.902786 
	C265.737030,123.389236 265.815704,123.859871 265.801086,124.680695 
z"/>
<path fill="#CECECE" opacity="1.000000" stroke="none" 
	d="
M260.976562,146.384888 
	C260.841034,146.439651 260.920227,146.438400 260.874207,146.441315 
	C260.828156,146.444214 261.239838,146.474213 261.239838,146.474213 
	C261.239838,146.474213 261.112091,146.330139 260.976562,146.384888 
z"/>
<path fill="#FDFDFD" opacity="1.000000" stroke="none" 
	d="
M262.359131,144.085831 
	C262.333099,143.858978 262.638489,143.543777 263.264465,143.122330 
	C263.286926,143.343216 262.988739,143.670364 262.359131,144.085831 
z"/>
<path fill="#FDFDFD" opacity="1.000000" stroke="none" 
	d="
M231.358582,121.567383 
	C231.323837,121.626266 231.407684,121.359436 231.457581,121.310028 
	C231.507462,121.260620 231.393311,121.508492 231.358582,121.567383 
z"/>
<path fill="#717171" opacity="1.000000" stroke="none" 
	d="
M231.359879,138.965637 
	C231.163971,138.669891 231.328201,138.292633 231.765488,137.705505 
	C231.932373,137.958450 231.826187,138.421295 231.359879,138.965637 
z"/>
<path fill="#E1E1E1" opacity="1.000000" stroke="none" 
	d="
M261.373169,122.575867 
	C261.701355,123.155334 261.767212,123.557770 261.663574,124.464455 
	C261.317749,125.321121 261.141449,125.673546 260.965118,126.025970 
	C260.965118,126.025970 260.999023,125.999596 260.744751,125.938965 
	C260.307495,125.866219 260.124512,125.854103 259.941528,125.841980 
	C259.675079,124.709663 259.408630,123.577339 259.142181,122.445023 
	C259.798401,122.429626 260.454651,122.414238 261.373169,122.575867 
z"/>
<path fill="#717171" opacity="1.000000" stroke="none" 
	d="
M260.624023,135.579163 
	C260.976196,135.798950 260.993591,136.150253 261.007080,137.029205 
	C260.765198,136.941452 260.527252,136.326065 260.624023,135.579163 
z"/>
<path fill="#CECECE" opacity="1.000000" stroke="none" 
	d="
M253.051392,118.404198 
	C253.554260,118.411766 254.064117,118.760910 254.259003,119.270966 
	C253.648804,119.203186 253.353592,118.974480 253.051392,118.404198 
z"/>
<path fill="#717171" opacity="1.000000" stroke="none" 
	d="
M258.945831,120.233749 
	C259.317963,119.832420 260.189148,119.638023 261.307739,119.738297 
	C260.851746,120.168869 260.148315,120.304779 258.945831,120.233749 
z"/>
<path fill="#CECECE" opacity="1.000000" stroke="none" 
	d="
M252.671204,116.687225 
	C253.062027,116.765640 253.156845,117.005386 253.087708,117.595421 
	C252.740906,117.579987 252.558029,117.214264 252.671204,116.687225 
z"/>
<path fill="#CECECE" opacity="1.000000" stroke="none" 
	d="
M254.952271,121.080109 
	C254.911957,120.664139 255.270828,120.301285 256.021912,120.001831 
	C256.059875,120.421234 255.705658,120.777229 254.952271,121.080109 
z"/>
<path fill="#717171" opacity="1.000000" stroke="none" 
	d="
M259.824219,126.258507 
	C260.124512,125.854103 260.307495,125.866219 260.761444,125.925453 
	C260.854156,126.346779 260.675873,126.720985 260.221375,127.301132 
	C259.865692,127.229721 259.786285,126.952377 259.824219,126.258507 
z"/>
<path fill="#CECECE" opacity="1.000000" stroke="none" 
	d="
M259.810760,130.327728 
	C259.881958,130.054504 260.187073,130.050751 260.948853,130.083282 
	C260.951904,130.278763 260.498291,130.437973 259.810760,130.327728 
z"/>
<path fill="#FDFDFD" opacity="1.000000" stroke="none" 
	d="
M263.002625,129.976410 
	C262.999542,129.970261 263.026520,129.863953 263.024445,129.924835 
	C263.022369,129.985718 263.005676,129.982559 263.002625,129.976410 
z"/>
<path fill="#717171" opacity="1.000000" stroke="none" 
	d="
M261.297241,126.079391 
	C261.141449,125.673546 261.317749,125.321121 261.727051,124.759796 
	C262.191589,124.548981 262.423157,124.547073 262.923828,124.764771 
	C262.671753,125.367188 262.150543,125.750000 261.297241,126.079391 
z"/>
</svg>