<?xml version="1.0" standalone="no"?>
<!DOCTYPE svg PUBLIC "-//W3C//DTD SVG 20010904//EN"
 "http://www.w3.org/TR/2001/REC-SVG-20010904/DTD/svg10.dtd">
<svg version="1.0" xmlns="http://www.w3.org/2000/svg"
 width="200.000000pt" height="228.000000pt" viewBox="0 0 200.000000 228.000000"
 preserveAspectRatio="xMidYMid meet">

<g transform="translate(0.000000,228.000000) scale(0.100000,-0.100000)"
fill="#000000" stroke="none">
<path d="M0 1140 l0 -1140 1000 0 1000 0 0 1140 0 1140 -1000 0 -1000 0 0
-1140z m1051 860 c237 -44 410 -285 370 -515 -41 -232 -222 -386 -456 -386
-224 0 -408 158 -446 385 -31 182 73 386 239 470 101 51 190 65 293 46z m526
-1122 l43 -42 0 -225 0 -225 -37 -38 -37 -38 -138 0 -138 0 0 300 0 299 108 4
c59 1 118 4 132 5 17 1 37 -11 67 -40z m-958 -9 l41 -41 0 -217 0 -217 -43
-42 -43 -42 -132 0 -132 0 0 300 0 300 134 0 134 0 41 -41z m491 -9 l0 -50
-95 0 -95 0 0 -75 0 -75 70 0 70 0 0 -50 0 -50 -70 0 -70 0 0 -125 0 -125 -50
0 -50 0 0 300 0 300 145 0 145 0 0 -50z"/>
<path d="M787 1873 c-4 -3 -7 -29 -7 -56 0 -40 3 -50 20 -54 19 -5 20 -14 20
-178 0 -166 -1 -173 -21 -178 -18 -5 -20 -12 -17 -59 l3 -53 172 0 c198 0 209
4 253 91 24 46 25 58 24 204 0 119 -4 163 -16 190 -19 42 -53 75 -91 89 -31
12 -329 15 -340 4z m309 -137 c17 -13 19 -27 19 -144 0 -162 -3 -166 -105
-170 l-71 -3 2 165 2 166 67 0 c41 0 73 -5 86 -14z"/>
<path d="M961 1723 c-14 -12 -14 -12 4 -6 18 6 19 5 5 -13 -11 -15 -11 -16 0
-6 8 6 18 12 23 12 4 0 5 -6 1 -12 -6 -10 -4 -10 7 0 20 18 33 15 18 -5 -11
-15 -11 -16 1 -5 21 18 34 15 19 -5 -11 -15 -11 -16 1 -5 20 18 35 15 19 -4
-20 -24 -20 -44 -1 -36 15 5 15 4 2 -14 -11 -15 -11 -16 0 -6 20 17 35 15 20
-3 -7 -8 -9 -15 -4 -15 5 -1 -2 -10 -15 -20 -13 -11 -18 -20 -12 -20 7 0 9 -5
4 -12 -14 -23 -12 -37 5 -30 15 5 15 4 2 -12 -20 -26 -22 -46 -2 -39 14 5 13
2 -3 -17 l-20 -23 33 23 c36 27 40 32 15 23 -16 -6 -16 -5 -3 11 20 26 21 46
2 39 -15 -4 -16 -3 -1 9 9 7 16 21 16 31 0 15 -12 15 -12 -1 0 -13 -16 -32
-27 -32 -7 0 -6 6 2 15 7 8 9 15 4 15 -5 1 2 10 15 20 13 11 18 20 12 20 -7 0
-9 5 -4 13 12 19 12 37 1 37 -6 0 -5 8 3 18 13 16 13 16 -7 0 -28 -24 -41 -23
-19 2 10 11 15 20 10 20 -4 0 -1 8 6 18 11 14 11 15 -1 5 -21 -19 -34 -16 -19
5 11 14 11 15 -1 5 -21 -19 -34 -16 -19 5 11 14 11 15 -1 5 -15 -14 -34 -18
-26 -5 8 13 -35 9 -53 -5z m119 -228 c-7 -8 -17 -15 -22 -15 -6 0 -5 7 2 15 7
8 17 15 22 15 6 0 5 -7 -2 -15z"/>
<path d="M714 1809 c-3 -5 3 -6 13 -3 16 5 16 4 2 -8 -21 -17 -21 -48 0 -40
14 5 14 3 2 -11 -7 -9 -10 -17 -6 -17 4 0 1 -8 -6 -17 -11 -15 -11 -16 1 -5
21 18 34 15 19 -5 -11 -15 -11 -16 1 -5 21 18 34 15 19 -5 -11 -15 -11 -16 1
-5 8 6 19 12 25 12 5 -1 -3 -12 -20 -26 -20 -17 -24 -22 -10 -17 18 6 18 5 6
-10 -7 -9 -10 -17 -6 -17 4 0 1 -8 -6 -17 -11 -15 -11 -16 1 -5 8 6 19 12 24
12 6 -1 0 -10 -13 -20 -13 -11 -18 -20 -12 -20 7 0 9 -5 4 -12 -11 -19 -12
-38 -2 -38 6 0 7 -6 2 -12 -14 -23 -12 -37 5 -30 15 5 15 4 2 -14 -11 -15 -11
-16 0 -6 8 6 19 12 24 12 6 -1 -2 -12 -19 -26 -20 -17 -24 -22 -10 -17 18 6
18 5 6 -10 -7 -9 -10 -17 -6 -17 4 0 1 -8 -6 -17 -10 -12 -5 -11 17 4 29 20
42 53 22 53 -5 0 -6 6 -1 13 14 22 12 36 -5 29 -15 -5 -15 -4 -2 12 21 26 22
46 2 38 -15 -5 -15 -4 -2 12 20 26 21 46 2 39 -15 -4 -16 -3 -1 9 9 7 16 21
16 31 0 12 -4 14 -11 7 -16 -16 -30 -12 -16 5 7 8 9 15 5 15 -4 0 -1 7 6 16
20 24 20 44 1 36 -15 -5 -15 -4 -2 14 11 15 11 16 0 7 -8 -7 -18 -13 -23 -13
-4 0 -5 6 0 13 11 18 12 37 2 37 -6 0 -7 6 -2 13 4 6 8 17 9 22 2 12 -44 16
-52 4z m37 -22 c-6 -8 -8 -17 -4 -21 4 -4 0 -4 -10 0 -14 5 -15 9 -6 20 6 8
16 14 21 14 7 0 6 -5 -1 -13z m4 -47 c-3 -5 -11 -10 -16 -10 -6 0 -7 5 -4 10
3 6 11 10 16 10 6 0 7 -4 4 -10z m25 -175 c-7 -8 -18 -15 -24 -15 -6 0 -2 7 8
15 25 19 32 19 16 0z m-1 -51 c-6 -8 -16 -14 -21 -14 -7 0 -6 5 1 13 6 8 8 17
4 21 -4 4 0 4 10 0 14 -5 15 -9 6 -20z m6 -94 c-3 -5 -11 -10 -16 -10 -6 0 -7
5 -4 10 3 6 11 10 16 10 6 0 7 -4 4 -10z"/>
<path d="M750 1370 c-12 -8 -12 -10 -1 -10 11 0 11 -3 1 -15 -7 -9 -18 -14
-25 -11 -6 2 -12 -2 -12 -9 0 -8 7 -11 16 -7 14 5 14 3 2 -11 -7 -9 -10 -17
-6 -17 4 0 1 -8 -6 -17 -11 -15 -11 -16 1 -5 8 6 19 12 25 12 5 -1 -1 -10 -14
-20 -13 -11 -18 -20 -12 -20 7 0 9 -5 5 -11 -5 -8 -1 -8 14 0 12 6 24 16 27
21 3 6 11 10 17 10 6 0 3 -10 -8 -22 -19 -23 -19 -23 2 -5 11 9 24 17 29 17 4
0 1 -8 -6 -17 -11 -15 -11 -16 1 -6 15 14 24 46 10 38 -14 -9 -60 17 -52 29
13 21 10 35 -6 28 -15 -5 -15 -4 -2 12 8 10 15 24 16 32 3 16 3 16 -16 4z m5
-70 c-3 -5 -11 -10 -16 -10 -6 0 -7 5 -4 10 3 6 11 10 16 10 6 0 7 -4 4 -10z
m15 -35 c0 -2 -10 -10 -22 -16 -21 -11 -22 -11 -9 4 13 16 31 23 31 12z"/>
<path d="M1075 1269 c-4 -6 -14 -8 -23 -4 -9 3 -13 3 -9 -1 4 -4 1 -14 -6 -23
-6 -8 3 -5 21 8 17 12 32 24 32 27 0 8 -9 4 -15 -7z"/>
<path d="M839 1265 c-1 -3 -2 -8 -3 -12 -1 -5 -4 -13 -8 -19 -11 -17 41 -8 61
10 26 24 37 19 15 -6 -19 -23 -19 -23 2 -5 11 9 24 17 29 17 4 0 1 -8 -6 -17
-11 -15 -11 -16 1 -5 15 13 34 17 26 4 -2 -4 4 -8 14 -8 11 0 17 2 15 5 -7 6
15 31 27 31 6 0 4 -8 -3 -17 -13 -16 -12 -17 4 -4 12 10 15 17 8 24 -7 7 -16
5 -29 -6 -24 -22 -38 -22 -21 1 11 14 11 15 -1 5 -15 -14 -34 -18 -26 -5 6 10
-70 9 -80 0 -11 -12 -26 -10 -19 2 3 6 4 10 1 10 -3 0 -7 -2 -7 -5z m51 -10
c0 -2 -10 -10 -22 -16 -21 -11 -22 -11 -9 4 13 16 31 23 31 12z"/>
<path d="M1380 610 l0 -200 53 0 c28 0 58 4 65 8 9 7 12 53 10 198 l-3 189
-62 3 -63 3 0 -201z"/>
<path d="M411 658 c-1 -84 2 -175 5 -201 l7 -48 61 3 61 3 5 188 c3 113 1 192
-4 198 -6 5 -38 9 -73 9 l-62 0 0 -152z"/>
</g>
</svg>
